<svg width="20" height="20" viewBox="-20 0 60 60" fill="none" xmlns="http://www.w3.org/2000/svg">
<g id="Logo" clip-path="url(#clip0_10_289)">
<path id="Vector_2" d="M1.85071 41.9263H19.291H36.7313" stroke="#7EB693" stroke-width="2" stroke-miterlimit="10"/>
<path id="Vector_3" d="M5.79102 48.3579H19.291H32.791" stroke="#7EB693" stroke-width="2" stroke-miterlimit="10"/>
<path id="Vector_4" d="M18.791 1.35791V8.35791V15.3579" stroke="#7EB693" stroke-width="2" stroke-miterlimit="10"/>
<path id="Vector_5" d="M18.8656 14.6421V41.0737" stroke="#7EB693" stroke-width="2" stroke-miterlimit="10"/>
<path id="Vector_6" d="M29.9253 4.41064L18.8656 15.4949" stroke="#7EB693" stroke-width="2" stroke-miterlimit="10"/>
<path id="Vector_7" d="M34.179 8.67383L18.8656 24.0212" stroke="#7EB693" stroke-width="2" stroke-miterlimit="10"/>
<path id="Vector_8" d="M36.7313 15.4946L18.8656 32.5473" stroke="#7EB693" stroke-width="2" stroke-miterlimit="10"/>
<path id="Vector_9" d="M37.582 23.1685L18.8656 41.9264" stroke="#7EB693" stroke-width="2" stroke-miterlimit="10"/>
<path id="Vector_10" d="M37.582 31.6948L27.373 41.9264" stroke="#7EB693" stroke-width="2" stroke-miterlimit="10"/>
<path id="Vector_11" d="M1 31.6948L11.209 41.9264" stroke="#7EB693" stroke-width="2" stroke-miterlimit="10"/>
<path id="Vector_12" d="M8.65674 4.41064L18.8657 15.4949" stroke="#7EB693" stroke-width="2" stroke-miterlimit="10"/>
<path id="Vector_13" d="M4.40295 8.67383L18.8656 24.0212" stroke="#7EB693" stroke-width="2" stroke-miterlimit="10"/>
<path id="Vector_14" d="M1.85071 14.6421L18.8656 32.5474" stroke="#7EB693" stroke-width="2" stroke-miterlimit="10"/>
<path id="Vector_15" d="M1 22.3159L18.8657 41.0738" stroke="#7EB693" stroke-width="2" stroke-miterlimit="10"/>
<path id="Vector_16" d="M19.291 54.7158C9.19019 54.7158 1 46.2635 1 35.8351V19.8806C1 9.45419 9.19019 1 19.291 1C29.3937 1 37.5821 9.45419 37.5821 19.8806V35.8351C37.5839 46.2635 29.3937 54.7158 19.291 54.7158Z" stroke="#7EB693" stroke-width="2" stroke-miterlimit="10"/>
</g>
</svg>
